<?xml version="1.0" encoding="UTF-8" standalone="no"?>
<svg width="1200px" height="600px" viewBox="0 0 1200 600" version="1.1" xmlns="http://www.w3.org/2000/svg" xmlns:xlink="http://www.w3.org/1999/xlink" xmlns:sketch="http://www.bohemiancoding.com/sketch/ns">
    <title>Pattern2</title>
    <description>Created with Sketch (http://www.bohemiancoding.com/sketch)</description>
    <defs></defs>
    <g id="Page-1" stroke="none" stroke-width="1" fill="none" fill-rule="evenodd" sketch:type="MSPage">
        <g id="Pattern1-copy" sketch:type="MSLayerGroup">
            <g id="Page-1" sketch:type="MSShapeGroup">
                <g id="Group-+-Group-copy">
                    <g id="Group">
                        <path d="M250,0 L275,50 L225,50 L250,0 Z" id="Red-copy" fill="#FF6373"></path>
                        <path d="M150,100 L175,150 L125,150 L150,100 Z" id="Red-copy-2" fill="#FF6373"></path>
                        <path d="M0,100 L25,150 L0,150 L0,100 Z" id="Red-copy-3" fill="#FF6373"></path>
                        <path d="M150,0 L175,50 L125,50 L150,0 Z" id="Purple-copy" fill="#B375F5"></path>
                        <path d="M100,100 L125,150 L75,150 L100,100 Z" id="Purple-copy-2" fill="#B375F5"></path>
                        <path d="M300,0 L325,50 L275,50 L300,0 Z" id="Purple-copy-3" fill="#B375F5"></path>
                        <path d="M0,0 L25,50 L0,50 L0,0 Z" id="Green-copy" fill="#41C5A9"></path>
                        <path d="M200,0 L225,50 L175,50 L200,0 Z" id="Green-copy-3" fill="#41C5A9"></path>
                        <path d="M50,0 L75,50 L25,50 L50,0 Z" id="Blue-copy" fill="#13CEEF"></path>
                        <path d="M350,0 L375,50 L325,50 L350,0 Z" id="Blue-copy-2" fill="#13CEEF"></path>
                        <path d="M175,50 L200,100 L150,100 L175,50 Z" id="Blue-copy-2" fill="#13CEEF"></path>
                        <path d="M75,50 L100,100 L50,100 L75,50 Z" id="Orange-copy" fill="#FFEF77"></path>
                        <path d="M50,100 L75,150 L25,150 L50,100 Z" id="Orange-copy-2" fill="#FFEF77"></path>
                        <path d="M100,0 L125,50 L75,50 L100,0 Z" id="Orange-copy-2" fill="#FFEF77"></path>
                        <path d="M50,0 L100,0 L75,50 L50,0 L50,0 Z" id="Red-copy" fill="#FF6373"></path>
                        <path d="M150,0 L200,0 L175,50 L150,0 L150,0 Z" id="Red-copy-2" fill="#FF6373"></path>
                        <path d="M175,50 L225,50 L200,100 L175,50 L175,50 Z" id="Red-copy-3" fill="#FF6373"></path>
                        <path d="M0,50 L50,50 L25,100 L0,50 L0,50 Z" id="Red-copy-2" fill="#FF6373" transform="translate(25.000000, 75.000000) rotate(180.000000) translate(-25.000000, -75.000000) "></path>
                        <path d="M25,50 L75,50 L50,100 L25,50 L25,50 Z" id="Purple-copy" fill="#B375F5"></path>
                        <path d="M200,0 L250,0 L225,50 L200,0 L200,0 Z" id="Purple-copy-2" fill="#B375F5"></path>
                        <path d="M350,0 L400,0 L375,50 L350,0 L350,0 Z" id="Purple-copy-3" fill="#B375F5"></path>
                        <path d="M0,100 L50,100 L25,150 L0,100 L0,100 Z" id="Purple-copy-2" fill="#B375F5"></path>
                        <path d="M75,50 L125,50 L100,100 L75,50 L75,50 Z" id="Green-copy" fill="#32CAA9"></path>
                        <path d="M0,50 L25,50 L0,100 L0,50 L0,50 Z" id="Blue-copy-2" fill="#13CEEF"></path>
                        <path d="M50,100 L100,100 L75,150 L50,100 L50,100 Z" id="Blue-copy-2" fill="#13CEEF"></path>
                        <path d="M225,50 L275,50 L250,100 L225,50 L225,50 Z" id="Blue-copy-4" fill="#13CEEF"></path>
                        <path d="M0,0 L50,0 L25,50 L0,0 L0,0 Z" id="Orange-copy" fill="#FFEF77"></path>
                        <path d="M300,0 L350,0 L325,50 L300,0 L300,0 Z" id="Orange-copy-2" fill="#FFEF77"></path>
                        <path d="M1050,0 L1075,50 L1025,50 L1050,0 Z" id="Red-copy" fill="#FF6373"></path>
                        <path d="M1200,100 L1200,150 L1175,150 L1200,100 Z" id="Red-copy-3" fill="#FF6373"></path>
                        <path d="M950,0 L975,50 L925,50 L950,0 Z" id="Purple-copy" fill="#B375F5"></path>
                        <path d="M1150,100 L1175,150 L1125,150 L1150,100 Z" id="Purple-copy-3" fill="#B375F5"></path>
                        <path d="M1100,0 L1125,50 L1075,50 L1100,0 Z" id="Purple-copy-3" fill="#B375F5"></path>
                        <path d="M1025,50 L1050,100 L1000,100 L1025,50 Z" id="Purple-copy-4" fill="#B375F5"></path>
                        <path d="M1125,50 L1150,100 L1100,100 L1125,50 Z" id="Purple-copy-5" fill="#B375F5"></path>
                        <path d="M800,0 L825,50 L775,50 L800,0 Z" id="Green-copy" fill="#41C5A9"></path>
                        <path d="M1050,100 L1075,150 L1025,150 L1050,100 Z" id="Green-copy-2" fill="#41C5A9"></path>
                        <path d="M850,0 L875,50 L825,50 L850,0 Z" id="Blue-copy" fill="#13CEEF"></path>
                        <path d="M1150,0 L1175,50 L1125,50 L1150,0 Z" id="Blue-copy-2" fill="#13CEEF"></path>
                        <path d="M975,50 L1000,100 L950,100 L975,50 Z" id="Blue-copy-2" fill="#13CEEF"></path>
                        <path d="M1100,100 L1125,150 L1075,150 L1100,100 Z" id="Blue-copy-3" fill="#13CEEF"></path>
                        <path d="M925,50 L950,100 L900,100 L925,50 Z" id="Orange-copy-4" fill="#FFEF77"></path>
                        <path d="M850,0 L900,0 L875,50 L850,0 L850,0 Z" id="Red-copy" fill="#FF6373"></path>
                        <path d="M975,50 L1025,50 L1000,100 L975,50 L975,50 Z" id="Red-copy-3" fill="#FF6373"></path>
                        <path d="M1000,0 L1050,0 L1025,50 L1000,0 L1000,0 Z" id="Purple-copy-2" fill="#B375F5"></path>
                        <path d="M1150,0 L1200,0 L1175,50 L1150,0 L1150,0 Z" id="Purple-copy-3" fill="#B375F5"></path>
                        <path d="M1175,550 L1200,550 L1200,600 L1175,550 L1175,550 Z" id="Purple-copy-4" fill="#B375F5"></path>
                        <path d="M875,50 L925,50 L900,100 L875,50 L875,50 Z" id="Green-copy" fill="#32CAA9"></path>
                        <path d="M1050,0 L1100,0 L1075,50 L1050,0 L1050,0 Z" id="Green-copy-2" fill="#32CAA9"></path>
                        <path d="M1125,50 L1175,50 L1150,100 L1125,50 L1125,50 Z" id="Green-copy-3" fill="#32CAA9"></path>
                        <path d="M900,0 L950,0 L925,50 L900,0 L900,0 Z" id="Blue-copy" fill="#13CEEF"></path>
                        <path d="M775,50 L825,50 L800,100 L775,50 L775,50 Z" id="Blue-copy-2" fill="#13CEEF"></path>
                        <path d="M1025,50 L1075,50 L1050,100 L1025,50 L1025,50 Z" id="Blue-copy-4" fill="#13CEEF"></path>
                        <path d="M800,0 L850,0 L825,50 L800,0 L800,0 Z" id="Orange-copy" fill="#FFEF77"></path>
                        <path d="M1100,0 L1150,0 L1125,50 L1100,0 L1100,0 Z" id="Orange-copy-2" fill="#FFEF77"></path>
                        <path d="M1050,100 L1100,100 L1075,150 L1050,100 L1050,100 Z" id="Orange-copy-3" fill="#FFEF77"></path>
                        <path d="M1150,100 L1200,100 L1175,150 L1150,100 L1150,100 Z" id="Orange-copy-4" fill="#FFEF77"></path>
                        <path d="M1075,50 L1125,50 L1100,100 L1075,50 L1075,50 Z" id="Orange-copy-3" fill="#FFEF77"></path>
                        <path d="M650,0 L675,50 L625,50 L650,0 Z" id="Red-copy" fill="#FF6373"></path>
                        <path d="M550,0 L575,50 L525,50 L550,0 Z" id="Purple-copy" fill="#B375F5"></path>
                        <path d="M625,50 L650,100 L600,100 L625,50 Z" id="Purple-copy-4" fill="#B375F5"></path>
                        <path d="M400,0 L425,50 L375,50 L400,0 Z" id="Green-copy" fill="#41C5A9"></path>
                        <path d="M600,0 L625,50 L575,50 L600,0 Z" id="Green-copy-3" fill="#41C5A9"></path>
                        <path d="M450,0 L475,50 L425,50 L450,0 Z" id="Blue-copy" fill="#13CEEF"></path>
                        <path d="M500,0 L525,50 L475,50 L500,0 Z" id="Orange-copy-2" fill="#FFEF77"></path>
                        <path d="M550,0 L600,0 L575,50 L550,0 L550,0 Z" id="Red-copy-2" fill="#FF6373"></path>
                        <path d="M525,50 L575,50 L550,100 L525,50 L525,50 Z" id="Red-copy-3" fill="#FF6373"></path>
                        <path d="M400,50 L450,50 L425,100 L400,50 L400,50 Z" id="Red-copy-2" fill="#FF6373" transform="translate(425.000000, 75.000000) rotate(180.000000) translate(-425.000000, -75.000000) "></path>
                        <path d="M425,50 L475,50 L450,100 L425,50 L425,50 Z" id="Purple-copy" fill="#B375F5"></path>
                        <path d="M750,0 L800,0 L775,50 L750,0 L750,0 Z" id="Purple-copy-3" fill="#B375F5"></path>
                        <path d="M650,0 L700,0 L675,50 L650,0 L650,0 Z" id="Green-copy-2" fill="#32CAA9"></path>
                        <path d="M725,50 L775,50 L750,100 L725,50 L725,50 Z" id="Green-copy-3" fill="#32CAA9"></path>
                        <path d="M500,0 L550,0 L525,50 L500,0 L500,0 Z" id="Blue-copy" fill="#13CEEF"></path>
                        <path d="M400,0 L450,0 L425,50 L400,0 L400,0 Z" id="Orange-copy" fill="#FFEF77"></path>
                        <path d="M700,0 L750,0 L725,50 L700,0 L700,0 Z" id="Orange-copy-2" fill="#FFEF77"></path>
                        <path d="M25,150 L25,200 L0,200 L25,150 Z" id="Purple-copy-3" fill="#B375F5" transform="translate(12.500000, 175.000000) rotate(180.000000) translate(-12.500000, -175.000000) "></path>
                        <path d="M125,200 L150,250 L100,250 L125,200 Z" id="Purple-copy-4" fill="#B375F5" transform="translate(125.000000, 225.000000) rotate(180.000000) translate(-125.000000, -225.000000) "></path>
                        <path d="M75,200 L100,250 L50,250 L75,200 Z" id="Green-copy-4" fill="#41C5A9" transform="translate(75.000000, 225.000000) rotate(180.000000) translate(-75.000000, -225.000000) "></path>
                        <path d="M175,200 L200,250 L150,250 L175,200 Z" id="Blue-copy-2" fill="#13CEEF" transform="translate(175.000000, 225.000000) rotate(180.000000) translate(-175.000000, -225.000000) "></path>
                        <path d="M50,150 L75,200 L25,200 L50,150 Z" id="Blue-copy-3" fill="#13CEEF" transform="translate(50.000000, 175.000000) rotate(180.000000) translate(-50.000000, -175.000000) "></path>
                        <path d="M125,200 L175,200 L150,250 L125,200 L125,200 Z" id="Red-copy-3" fill="#FF6373" transform="translate(150.000000, 225.000000) rotate(180.000000) translate(-150.000000, -225.000000) "></path>
                        <path d="M0,150 L50,150 L25,200 L0,150 L0,150 Z" id="Red-copy-4" fill="#FF6373" transform="translate(25.000000, 175.000000) rotate(180.000000) translate(-25.000000, -175.000000) "></path>
                        <path d="M1150,250 L1200,250 L1175,300 L1150,250 L1150,250 Z" id="Purple-copy-3" fill="#B375F5" transform="translate(1175.000000, 275.000000) rotate(180.000000) translate(-1175.000000, -275.000000) "></path>
                        <path d="M0,200 L25,200 L25,250 L0,200 L0,200 Z" id="Green-copy-3" fill="#32CAA9" transform="translate(12.500000, 225.000000) rotate(180.000000) translate(-12.500000, -225.000000) "></path>
                        <path d="M100,150 L150,150 L125,200 L100,150 L100,150 Z" id="Blue-copy-3" fill="#13CEEF" transform="translate(125.000000, 175.000000) rotate(180.000000) translate(-125.000000, -175.000000) "></path>
                        <path d="M50,150 L100,150 L75,200 L50,150 L50,150 Z" id="Orange-copy-3" fill="#FFEF77" transform="translate(75.000000, 175.000000) rotate(180.000000) translate(-75.000000, -175.000000) "></path>
                        <path d="M25,200 L75,200 L50,250 L25,200 L25,200 Z" id="Orange-copy-3" fill="#FFEF77" transform="translate(50.000000, 225.000000) rotate(180.000000) translate(-50.000000, -225.000000) "></path>
                        <path d="M1150,250 L1175,300 L1125,300 L1150,250 Z" id="Green-copy" fill="#41C5A9" transform="translate(1150.000000, 275.000000) rotate(180.000000) translate(-1150.000000, -275.000000) "></path>
                        <path d="M1075,200 L1100,250 L1050,250 L1075,200 Z" id="Orange-copy" fill="#FFEF77" transform="translate(1075.000000, 225.000000) rotate(180.000000) translate(-1075.000000, -225.000000) "></path>
                        <path d="M1025,200 L1050,250 L1000,250 L1025,200 Z" id="Orange-copy-4" fill="#FFEF77" transform="translate(1025.000000, 225.000000) rotate(180.000000) translate(-1025.000000, -225.000000) "></path>
                        <path d="M1175,200 L1200,200 L1175,250 L1175,200 L1175,200 Z" id="Green-copy-2" fill="#32CAA9" transform="translate(1187.500000, 225.000000) rotate(180.000000) translate(-1187.500000, -225.000000) "></path>
                    </g>
                    <g id="Group-copy">
                        <path d="M175,350 L200,400 L150,400 L175,350 Z" id="Purple-copy-4" fill="#B375F5"></path>
                        <path d="M1150,300 L1175,350 L1125,350 L1150,300 Z" id="Green-copy" fill="#41C5A9"></path>
                        <path d="M25,350 L50,400 L0,400 L25,350 Z" id="Orange-copy" fill="#FFEF77"></path>
                        <path d="M0,400 L25,450 L0,450 L0,400 Z" id="Orange-copy-2" fill="#FFEF77"></path>
                        <path d="M150,400 L175,450 L125,450 L150,400 Z" id="Orange-copy-3" fill="#FFEF77"></path>
                        <path d="M1150,350 L1200,350 L1175,400 L1150,350 L1150,350 Z" id="Red-copy-2" fill="#FF6373" transform="translate(1175.000000, 375.000000) rotate(180.000000) translate(-1175.000000, -375.000000) "></path>
                        <path d="M1.0658141e-14,350 L25,350 L0,400 L1.0658141e-14,350 L1.0658141e-14,350 Z" id="Purple-copy" fill="#B375F5"></path>
                        <path d="M1125,350 L1175,350 L1150,400 L1125,350 L1125,350 Z" id="Blue-copy-2" fill="#13CEEF"></path>
                        <path d="M1175,450 L1200,450 L1200,500 L1175,450 L1175,450 Z" id="Blue-copy-3" fill="#13CEEF"></path>
                        <path d="M0,400 L50,400 L25,450 L0,400 L0,400 Z" id="Blue-copy-2" fill="#13CEEF"></path>
                        <path d="M1150,300 L1200,300 L1175,350 L1150,300 L1150,300 Z" id="Orange-copy" fill="#FFEF77"></path>
                        <path d="M1100,300 L1150,300 L1125,350 L1100,300 L1100,300 Z" id="Purple-copy-3" fill="#B375F5"></path>
                        <path d="M1175,350 L1200,350 L1200,400 L1175,350 L1175,350 Z" id="Purple-copy-4" fill="#B375F5"></path>
                        <path d="M50,550 L75,600 L25,600 L50,550 Z" id="Red-copy" fill="#FF6373" transform="translate(50.000000, 575.000000) rotate(180.000000) translate(-50.000000, -575.000000) "></path>
                        <path d="M150,550 L175,600 L125,600 L150,550 Z" id="Purple-copy" fill="#B375F5" transform="translate(150.000000, 575.000000) rotate(180.000000) translate(-150.000000, -575.000000) "></path>
                        <path d="M200,450 L225,500 L175,500 L200,450 Z" id="Purple-copy-2" fill="#B375F5" transform="translate(200.000000, 475.000000) rotate(180.000000) translate(-200.000000, -475.000000) "></path>
                        <path d="M25,550 L25,600 L0,600 L25,550 Z" id="Purple-copy-3" fill="#B375F5" transform="translate(12.500000, 575.000000) rotate(180.000000) translate(-12.500000, -575.000000) "></path>
                        <path d="M75,500 L100,550 L50,550 L75,500 Z" id="Purple-copy-4" fill="#B375F5" transform="translate(75.000000, 525.000000) rotate(180.000000) translate(-75.000000, -525.000000) "></path>
                        <path d="M1175,500 L1200,550 L1150,550 L1175,500 Z" id="Purple-copy-5" fill="#B375F5" transform="translate(1175.000000, 525.000000) rotate(180.000000) translate(-1175.000000, -525.000000) "></path>
                        <path d="M300,550 L325,600 L275,600 L300,550 Z" id="Green-copy" fill="#41C5A9" transform="translate(300.000000, 575.000000) rotate(180.000000) translate(-300.000000, -575.000000) "></path>
                        <path d="M50,450 L75,500 L25,500 L50,450 Z" id="Green-copy-2" fill="#41C5A9" transform="translate(50.000000, 475.000000) rotate(180.000000) translate(-50.000000, -475.000000) "></path>
                        <path d="M100,550 L125,600 L75,600 L100,550 Z" id="Green-copy-3" fill="#41C5A9" transform="translate(100.000000, 575.000000) rotate(180.000000) translate(-100.000000, -575.000000) "></path>
                        <path d="M25,500 L50,550 L0,550 L25,500 Z" id="Green-copy-4" fill="#41C5A9" transform="translate(25.000000, 525.000000) rotate(180.000000) translate(-25.000000, -525.000000) "></path>
                        <path d="M250,550 L275,600 L225,600 L250,550 Z" id="Blue-copy" fill="#13CEEF" transform="translate(250.000000, 575.000000) rotate(180.000000) translate(-250.000000, -575.000000) "></path>
                        <path d="M1150,550 L1175,600 L1125,600 L1150,550 Z" id="Blue-copy-2" fill="#13CEEF" transform="translate(1150.000000, 575.000000) rotate(180.000000) translate(-1150.000000, -575.000000) "></path>
                        <path d="M125,500 L150,550 L100,550 L125,500 Z" id="Blue-copy-2" fill="#13CEEF" transform="translate(125.000000, 525.000000) rotate(180.000000) translate(-125.000000, -525.000000) "></path>
                        <path d="M25,450 L25,500 L0,500 L25,450 Z" id="Blue-copy-3" fill="#13CEEF" transform="translate(12.500000, 475.000000) rotate(180.000000) translate(-12.500000, -475.000000) "></path>
                        <path d="M225,500 L250,550 L200,550 L225,500 Z" id="Orange-copy" fill="#FFEF77" transform="translate(225.000000, 525.000000) rotate(180.000000) translate(-225.000000, -525.000000) "></path>
                        <path d="M250,450 L275,500 L225,500 L250,450 Z" id="Orange-copy-2" fill="#FFEF77" transform="translate(250.000000, 475.000000) rotate(180.000000) translate(-250.000000, -475.000000) "></path>
                        <path d="M200,550 L225,600 L175,600 L200,550 Z" id="Orange-copy-2" fill="#FFEF77" transform="translate(200.000000, 575.000000) rotate(180.000000) translate(-200.000000, -575.000000) "></path>
                        <path d="M175,500 L200,550 L150,550 L175,500 Z" id="Orange-copy-4" fill="#FFEF77" transform="translate(175.000000, 525.000000) rotate(180.000000) translate(-175.000000, -525.000000) "></path>
                        <path d="M200,550 L250,550 L225,600 L200,550 L200,550 Z" id="Red-copy" fill="#FF6373" transform="translate(225.000000, 575.000000) rotate(180.000000) translate(-225.000000, -575.000000) "></path>
                        <path d="M100,550 L150,550 L125,600 L100,550 L100,550 Z" id="Red-copy-2" fill="#FF6373" transform="translate(125.000000, 575.000000) rotate(180.000000) translate(-125.000000, -575.000000) "></path>
                        <path d="M125,500 L175,500 L150,550 L125,500 L125,500 Z" id="Red-copy-3" fill="#FF6373" transform="translate(150.000000, 525.000000) rotate(180.000000) translate(-150.000000, -525.000000) "></path>
                        <path d="M1150,450 L1200,450 L1175,500 L1150,450 L1150,450 Z" id="Red-copy-4" fill="#FF6373" transform="translate(1175.000000, 475.000000) rotate(180.000000) translate(-1175.000000, -475.000000) "></path>
                        <path d="M250,500 L300,500 L275,550 L250,500 L250,500 Z" id="Red-copy-2" fill="#FF6373"></path>
                        <path d="M1100,550 L1150,550 L1125,600 L1100,550 L1100,550 Z" id="Purple-copy-3" fill="#B375F5" transform="translate(1125.000000, 575.000000) rotate(180.000000) translate(-1125.000000, -575.000000) "></path>
                        <path d="M175,500 L225,500 L200,550 L175,500 L175,500 Z" id="Green-copy" fill="#32CAA9" transform="translate(200.000000, 525.000000) rotate(180.000000) translate(-200.000000, -525.000000) "></path>
                        <path d="M150,450 L200,450 L175,500 L150,450 L150,450 Z" id="Green-copy-3" fill="#32CAA9" transform="translate(175.000000, 475.000000) rotate(180.000000) translate(-175.000000, -475.000000) "></path>
                        <path d="M0,550 L50,550 L25,600 L0,550 L0,550 Z" id="Green-copy-2" fill="#32CAA9" transform="translate(25.000000, 575.000000) rotate(180.000000) translate(-25.000000, -575.000000) "></path>
                        <path d="M1125,500 L1175,500 L1150,550 L1125,500 L1125,500 Z" id="Green-copy-3" fill="#32CAA9" transform="translate(1150.000000, 525.000000) rotate(180.000000) translate(-1150.000000, -525.000000) "></path>
                        <path d="M150,550 L200,550 L175,600 L150,550 L150,550 Z" id="Blue-copy" fill="#13CEEF" transform="translate(175.000000, 575.000000) rotate(180.000000) translate(-175.000000, -575.000000) "></path>
                        <path d="M275,500 L325,500 L300,550 L275,500 L275,500 Z" id="Blue-copy-2" fill="#13CEEF" transform="translate(300.000000, 525.000000) rotate(180.000000) translate(-300.000000, -525.000000) "></path>
                        <path d="M50,450 L100,450 L75,500 L50,450 L50,450 Z" id="Blue-copy-3" fill="#13CEEF" transform="translate(75.000000, 475.000000) rotate(180.000000) translate(-75.000000, -475.000000) "></path>
                        <path d="M25,500 L75,500 L50,550 L25,500 L25,500 Z" id="Blue-copy-4" fill="#13CEEF" transform="translate(50.000000, 525.000000) rotate(180.000000) translate(-50.000000, -525.000000) "></path>
                        <path d="M1150,550 L1200,550 L1175,600 L1150,550 L1150,550 Z" id="Orange-copy-2" fill="#FFEF77" transform="translate(1175.000000, 575.000000) rotate(180.000000) translate(-1175.000000, -575.000000) "></path>
                        <path d="M0,450 L50,450 L25,500 L0,450 L0,450 Z" id="Orange-copy-3" fill="#FFEF77" transform="translate(25.000000, 475.000000) rotate(180.000000) translate(-25.000000, -475.000000) "></path>
                        <path d="M1175,500 L1200,500 L1175,550 L1175,500 L1175,500 Z" id="Orange-copy-6" fill="#FFEF77" transform="translate(1187.500000, 525.000000) rotate(180.000000) translate(-1187.500000, -525.000000) "></path>
                        <path d="M850,550 L875,600 L825,600 L850,550 Z" id="Red-copy" fill="#FF6373" transform="translate(850.000000, 575.000000) rotate(180.000000) translate(-850.000000, -575.000000) "></path>
                        <path d="M725,500 L750,550 L700,550 L725,500 Z" id="Red-copy-2" fill="#FF6373" transform="translate(725.000000, 525.000000) rotate(180.000000) translate(-725.000000, -525.000000) "></path>
                        <path d="M1100,450 L1125,500 L1075,500 L1100,450 Z" id="Red-copy-3" fill="#FF6373" transform="translate(1100.000000, 475.000000) rotate(180.000000) translate(-1100.000000, -475.000000) "></path>
                        <path d="M950,550 L975,600 L925,600 L950,550 Z" id="Purple-copy" fill="#B375F5" transform="translate(950.000000, 575.000000) rotate(180.000000) translate(-950.000000, -575.000000) "></path>
                        <path d="M800,550 L825,600 L775,600 L800,550 Z" id="Purple-copy-3" fill="#B375F5" transform="translate(800.000000, 575.000000) rotate(180.000000) translate(-800.000000, -575.000000) "></path>
                        <path d="M875,500 L900,550 L850,550 L875,500 Z" id="Purple-copy-4" fill="#B375F5" transform="translate(875.000000, 525.000000) rotate(180.000000) translate(-875.000000, -525.000000) "></path>
                        <path d="M775,500 L800,550 L750,550 L775,500 Z" id="Purple-copy-5" fill="#B375F5" transform="translate(775.000000, 525.000000) rotate(180.000000) translate(-775.000000, -525.000000) "></path>
                        <path d="M900,550 L925,600 L875,600 L900,550 Z" id="Green-copy-3" fill="#41C5A9" transform="translate(900.000000, 575.000000) rotate(180.000000) translate(-900.000000, -575.000000) "></path>
                        <path d="M825,500 L850,550 L800,550 L825,500 Z" id="Green-copy-4" fill="#41C5A9" transform="translate(825.000000, 525.000000) rotate(180.000000) translate(-825.000000, -525.000000) "></path>
                        <path d="M1050,550 L1075,600 L1025,600 L1050,550 Z" id="Blue-copy" fill="#13CEEF" transform="translate(1050.000000, 575.000000) rotate(180.000000) translate(-1050.000000, -575.000000) "></path>
                        <path d="M750,550 L775,600 L725,600 L750,550 Z" id="Blue-copy-2" fill="#13CEEF" transform="translate(750.000000, 575.000000) rotate(180.000000) translate(-750.000000, -575.000000) "></path>
                        <path d="M925,500 L950,550 L900,550 L925,500 Z" id="Blue-copy-2" fill="#13CEEF" transform="translate(925.000000, 525.000000) rotate(180.000000) translate(-925.000000, -525.000000) "></path>
                        <path d="M1000,550 L1025,600 L975,600 L1000,550 Z" id="Orange-copy-2" fill="#FFEF77" transform="translate(1000.000000, 575.000000) rotate(180.000000) translate(-1000.000000, -575.000000) "></path>
                        <path d="M975,500 L1000,550 L950,550 L975,500 Z" id="Orange-copy-4" fill="#FFEF77" transform="translate(975.000000, 525.000000) rotate(180.000000) translate(-975.000000, -525.000000) "></path>
                        <path d="M1000,550 L1050,550 L1025,600 L1000,550 L1000,550 Z" id="Red-copy" fill="#FF6373" transform="translate(1025.000000, 575.000000) rotate(180.000000) translate(-1025.000000, -575.000000) "></path>
                        <path d="M900,550 L950,550 L925,600 L900,550 L900,550 Z" id="Red-copy-2" fill="#FF6373" transform="translate(925.000000, 575.000000) rotate(180.000000) translate(-925.000000, -575.000000) "></path>
                        <path d="M925,500 L975,500 L950,550 L925,500 L925,500 Z" id="Red-copy-3" fill="#FF6373" transform="translate(950.000000, 525.000000) rotate(180.000000) translate(-950.000000, -525.000000) "></path>
                        <path d="M1050,500 L1100,500 L1075,550 L1050,500 L1050,500 Z" id="Red-copy-2" fill="#FF6373"></path>
                        <path d="M850,550 L900,550 L875,600 L850,550 L850,550 Z" id="Purple-copy-2" fill="#B375F5" transform="translate(875.000000, 575.000000) rotate(180.000000) translate(-875.000000, -575.000000) "></path>
                        <path d="M700,550 L750,550 L725,600 L700,550 L700,550 Z" id="Purple-copy-3" fill="#B375F5" transform="translate(725.000000, 575.000000) rotate(180.000000) translate(-725.000000, -575.000000) "></path>
                        <path d="M975,500 L1025,500 L1000,550 L975,500 L975,500 Z" id="Green-copy" fill="#32CAA9" transform="translate(1000.000000, 525.000000) rotate(180.000000) translate(-1000.000000, -525.000000) "></path>
                        <path d="M950,450 L1000,450 L975,500 L950,450 L950,450 Z" id="Green-copy-3" fill="#32CAA9" transform="translate(975.000000, 475.000000) rotate(180.000000) translate(-975.000000, -475.000000) "></path>
                        <path d="M800,550 L850,550 L825,600 L800,550 L800,550 Z" id="Green-copy-2" fill="#32CAA9" transform="translate(825.000000, 575.000000) rotate(180.000000) translate(-825.000000, -575.000000) "></path>
                        <path d="M950,550 L1000,550 L975,600 L950,550 L950,550 Z" id="Blue-copy" fill="#13CEEF" transform="translate(975.000000, 575.000000) rotate(180.000000) translate(-975.000000, -575.000000) "></path>
                        <path d="M1075,500 L1125,500 L1100,550 L1075,500 L1075,500 Z" id="Blue-copy-2" fill="#13CEEF" transform="translate(1100.000000, 525.000000) rotate(180.000000) translate(-1100.000000, -525.000000) "></path>
                        <path d="M850,450 L900,450 L875,500 L850,450 L850,450 Z" id="Blue-copy-3" fill="#13CEEF" transform="translate(875.000000, 475.000000) rotate(180.000000) translate(-875.000000, -475.000000) "></path>
                        <path d="M825,500 L875,500 L850,550 L825,500 L825,500 Z" id="Blue-copy-4" fill="#13CEEF" transform="translate(850.000000, 525.000000) rotate(180.000000) translate(-850.000000, -525.000000) "></path>
                        <path d="M1050,550 L1100,550 L1075,600 L1050,550 L1050,550 Z" id="Orange-copy" fill="#FFEF77" transform="translate(1075.000000, 575.000000) rotate(180.000000) translate(-1075.000000, -575.000000) "></path>
                        <path d="M750,550 L800,550 L775,600 L750,550 L750,550 Z" id="Orange-copy-2" fill="#FFEF77" transform="translate(775.000000, 575.000000) rotate(180.000000) translate(-775.000000, -575.000000) "></path>
                        <path d="M775,500 L825,500 L800,550 L775,500 L775,500 Z" id="Orange-copy-3" fill="#FFEF77" transform="translate(800.000000, 525.000000) rotate(180.000000) translate(-800.000000, -525.000000) "></path>
                        <path d="M450,550 L475,600 L425,600 L450,550 Z" id="Red-copy" fill="#FF6373" transform="translate(450.000000, 575.000000) rotate(180.000000) translate(-450.000000, -575.000000) "></path>
                        <path d="M550,550 L575,600 L525,600 L550,550 Z" id="Purple-copy" fill="#B375F5" transform="translate(550.000000, 575.000000) rotate(180.000000) translate(-550.000000, -575.000000) "></path>
                        <path d="M500,550 L525,600 L475,600 L500,550 Z" id="Green-copy-3" fill="#41C5A9" transform="translate(500.000000, 575.000000) rotate(180.000000) translate(-500.000000, -575.000000) "></path>
                        <path d="M650,550 L675,600 L625,600 L650,550 Z" id="Blue-copy" fill="#13CEEF" transform="translate(650.000000, 575.000000) rotate(180.000000) translate(-650.000000, -575.000000) "></path>
                        <path d="M350,550 L375,600 L325,600 L350,550 Z" id="Blue-copy-2" fill="#13CEEF" transform="translate(350.000000, 575.000000) rotate(180.000000) translate(-350.000000, -575.000000) "></path>
                        <path d="M600,550 L625,600 L575,600 L600,550 Z" id="Orange-copy-2" fill="#FFEF77" transform="translate(600.000000, 575.000000) rotate(180.000000) translate(-600.000000, -575.000000) "></path>
                        <path d="M575,500 L600,550 L550,550 L575,500 Z" id="Orange-copy-4" fill="#FFEF77" transform="translate(575.000000, 525.000000) rotate(180.000000) translate(-575.000000, -525.000000) "></path>
                        <path d="M500,550 L550,550 L525,600 L500,550 L500,550 Z" id="Red-copy-2" fill="#FF6373" transform="translate(525.000000, 575.000000) rotate(180.000000) translate(-525.000000, -575.000000) "></path>
                        <path d="M475,500 L525,500 L500,550 L475,500 L475,500 Z" id="Red-copy-3" fill="#FF6373" transform="translate(500.000000, 525.000000) rotate(180.000000) translate(-500.000000, -525.000000) "></path>
                        <path d="M625,500 L675,500 L650,550 L625,500 L625,500 Z" id="Purple-copy" fill="#B375F5" transform="translate(650.000000, 525.000000) rotate(180.000000) translate(-650.000000, -525.000000) "></path>
                        <path d="M300,550 L350,550 L325,600 L300,550 L300,550 Z" id="Purple-copy-3" fill="#B375F5" transform="translate(325.000000, 575.000000) rotate(180.000000) translate(-325.000000, -575.000000) "></path>
                        <path d="M400,550 L450,550 L425,600 L400,550 L400,550 Z" id="Green-copy-2" fill="#32CAA9" transform="translate(425.000000, 575.000000) rotate(180.000000) translate(-425.000000, -575.000000) "></path>
                        <path d="M1175,0 L1200,0 L1175,50 L1175,0 L1175,0 Z" id="Green-copy-3" fill="#32CAA9" transform="translate(1187.500000, 25.000000) rotate(180.000000) translate(-1187.500000, -25.000000) "></path>
                        <path d="M550,550 L600,550 L575,600 L550,550 L550,550 Z" id="Blue-copy" fill="#13CEEF" transform="translate(575.000000, 575.000000) rotate(180.000000) translate(-575.000000, -575.000000) "></path>
                        <path d="M675,500 L725,500 L700,550 L675,500 L675,500 Z" id="Blue-copy-2" fill="#13CEEF" transform="translate(700.000000, 525.000000) rotate(180.000000) translate(-700.000000, -525.000000) "></path>
                        <path d="M650,550 L700,550 L675,600 L650,550 L650,550 Z" id="Orange-copy" fill="#FFEF77" transform="translate(675.000000, 575.000000) rotate(180.000000) translate(-675.000000, -575.000000) "></path>
                        <path d="M350,550 L400,550 L375,600 L350,550 L350,550 Z" id="Orange-copy-2" fill="#FFEF77" transform="translate(375.000000, 575.000000) rotate(180.000000) translate(-375.000000, -575.000000) "></path>
                    </g>
                </g>
            </g>
        </g>
    </g>
</svg>