<?xml version="1.0" standalone="no"?>
<!DOCTYPE svg PUBLIC "-//W3C//DTD SVG 20010904//EN"
 "http://www.w3.org/TR/2001/REC-SVG-20010904/DTD/svg10.dtd">
<svg version="1.0" xmlns="http://www.w3.org/2000/svg"
 width="700.000000pt" height="700.000000pt" viewBox="0 0 700.000000 700.000000"
 preserveAspectRatio="xMidYMid meet">
<metadata>
Created by potrace 1.11, written by Peter Selinger 2001-2013
</metadata>
<g transform="translate(0.000000,700.000000) scale(0.100000,-0.100000)"
fill="#000000" stroke="none">
<path d="M454 6980 c-114 -30 -190 -74 -274 -159 -87 -87 -132 -165 -160 -277
-20 -76 -20 -122 -20 -3044 0 -2922 0 -2968 20 -3044 29 -113 73 -190 160
-276 86 -87 163 -131 276 -160 76 -20 122 -20 3044 -20 2922 0 2968 0 3044 20
113 29 190 73 276 160 87 86 131 163 160 276 20 76 20 122 20 3044 0 2922 0
2968 -20 3044 -28 112 -73 190 -160 277 -85 87 -160 130 -278 160 -74 19 -142
19 -3046 18 -2868 0 -2973 -1 -3042 -19z m3166 -1499 c104 -31 208 -129 251
-238 31 -81 32 -205 0 -286 -27 -67 -83 -142 -134 -177 l-37 -25 0 -527 0
-528 528 1 527 0 40 52 c43 55 124 110 190 129 22 7 74 12 115 12 90 0 137
-13 210 -56 188 -114 243 -374 118 -563 -40 -60 -113 -118 -185 -146 -81 -31
-205 -31 -286 0 -67 27 -142 83 -177 134 l-25 37 -527 0 -528 0 0 -527 0 -528
35 -22 c19 -13 52 -45 74 -73 128 -161 115 -387 -30 -532 -87 -87 -224 -132
-339 -110 -178 33 -299 154 -332 331 -14 74 1 170 36 240 29 55 94 131 130
150 l26 14 0 529 0 528 -527 0 -528 0 -25 -37 c-82 -120 -263 -186 -408 -149
-86 22 -137 50 -194 107 -89 89 -132 223 -109 345 31 171 153 294 324 325 146
27 308 -38 388 -156 l24 -35 528 0 527 0 0 528 0 527 -37 25 c-51 35 -108 110
-132 175 -86 229 39 472 274 532 53 13 157 10 215 -6z"/>
</g>
</svg>
